<svg version="1.1" xmlns="http://www.w3.org/2000/svg" xmlns:xlink="http://www.w3.org/1999/xlink" width="419.5" height="640" viewBox="0,0,419.5,640"><g transform="translate(-89.4037,0)"><g fill-rule="evenodd" stroke="none" stroke-miterlimit="10"><g><path d="M177.4037,0c15.5,0 31,0 46.5,0c0,45 0,90 0,135c3,0 6,0 9,0c0.5125,-44.999 0.5125,-89.9992 0,-135c7,0 14,0 21,0c3.911,6.81965 7.8275,13.65295 11.75,20.5c3.9225,-6.84705 7.839,-13.68035 11.75,-20.5c1.6665,0 3.3335,0 5,0c3.911,6.81965 7.8275,13.65295 11.75,20.5c3.9225,-6.84705 7.839,-13.68035 11.75,-20.5c1.3335,0 2.6665,0 4,0c3.911,6.81965 7.8275,13.65295 11.75,20.5c3.9225,-6.84705 7.839,-13.68035 11.75,-20.5c1.6665,0 3.33349,0 4.99999,0c3.569,6.80245 7.40201,13.4691 11.50001,20c4.098,-6.5309 7.931,-13.19755 11.5,-20c1.8335,0 3.6665,0 5.5,0c3.569,6.80245 7.402,13.4691 11.5,20c4.098,-6.5309 7.931,-13.19755 11.5,-20c1.5,0 3,0 4.5,0c3.569,6.80245 7.402,13.4691 11.5,20c4.098,-6.5309 7.931,-13.19755 11.5,-20c1.5,0 3,0 4.5,0c3.569,6.80245 7.402,13.4691 11.5,20c4.098,-6.5309 7.931,-13.19755 11.5,-20c1.8335,0 3.6665,0 5.5,0c3.569,6.80245 7.402,13.4691 11.5,20c4.098,-6.5309 7.931,-13.19755 11.5,-20c1.5,0 3,0 4.5,0c3.569,6.80245 7.402,13.4691 11.5,20c3.876,-6.25085 7.626,-12.5842 11.25,-19c0.25,8.49835 0.3335,16.99835 0.25,25.5c-3.184,-0.16485 -6.351,0.00185 -9.5,0.5c2.957,5.4151 6.0405,10.7484 9.25,16c0.25,12.499 0.3335,24.999 0.25,37.50001c-3.3705,-0.1755 -6.0375,-0.009 -8,0.5c0.4705,0.775 0.80349,1.608 1,2.5c0,0.6665 0.33351,1 1,1c1.858,3.951 4.02449,7.701 6.5,11.25c-0.4995,181.403 -0.666,362.8195 -0.5,544.25c-89.3335,0 -178.6665,0 -268,0c0.4265,-120.335 0.4265,-240.6675 0,-361c-3,0 -6,0 -9,0c-0.658,120.3335 -0.658,240.665 0,361c-27.6665,0 -55.33349,0 -82.99999,0c0,-4 0,-8 0,-12c30.8075,-1.1 52.891,-15.43501 66.24999,-43.00001c11.501,-30.995 5.918,-58.415 -16.75,-82.25c-13.9935,-12.6405 -30.49349,-19.0575 -49.49999,-19.25c0,-6.8335 0,-13.6665 0,-20.5c31.9945,-1.525 54.4115,-16.8585 67.25,-46c9.729,-28.7385 4.5625,-54.40501 -15.5,-77c-14.296,-14.0775 -31.546,-21.4105 -51.75,-22c0,-6.6665 0,-13.3335 0,-20c31.187,-1.63 53.437,-16.4635 66.75,-44.5c10.0865,-27.494 6.08649,-52.6605 -12,-75.5c-14.6925,-15.969 -32.94249,-24.3025 -54.75,-25c0,-6.5 0,-13 0,-19.5c30.9745,-1.408 53.05799,-16.07449 66.24999,-43.99999c9.727,-26.2965 6.22701,-50.62966 -10.5,-73c-5.6045,-6.52645 -12.021,-12.02645 -19.25,-16.5zM267.4037,27c7.7475,-0.58065 15.5805,-0.664 23.5,-0.25c-3.98,6.70905 -7.8965,13.45905 -11.75,20.25c-3.804,-6.78045 -7.7205,-13.4471 -11.75,-20zM295.9037,27c7.7475,-0.58065 15.5805,-0.664 23.5,-0.25c-3.98,6.70905 -7.8965,13.45905 -11.75,20.25c-3.804,-6.78045 -7.7205,-13.4471 -11.75,-20zM323.4037,27c7.7475,-0.58065 15.5805,-0.664 23.5,-0.25c-3.98,6.70905 -7.8965,13.45905 -11.75,20.25c-3.804,-6.78045 -7.7205,-13.4471 -11.75,-20zM351.90371,26.5c7.674,-0.16635 15.3405,0.0003 23,0.5c-3.7075,6.58235 -7.5405,13.08234 -11.5,19.5c-4.098,-6.5309 -7.931,-13.19754 -11.5,-19.99999zM380.4037,26.5c7.674,-0.16635 15.3405,0.0003 23,0.5c-3.7075,6.58235 -7.54051,13.08234 -11.50001,19.5c-4.098,-6.5309 -7.931,-13.19754 -11.5,-19.99999zM407.9037,26.5c7.674,-0.16635 15.3405,0.0003 23,0.5c-3.7075,6.58235 -7.5405,13.08234 -11.5,19.5c-4.098,-6.5309 -7.931,-13.19754 -11.5,-19.99999zM435.4037,26.5c7.674,-0.16635 15.3405,0.0003 23,0.5c-3.7075,6.58235 -7.5405,13.08234 -11.5,19.5c-4.098,-6.5309 -7.931,-13.19754 -11.5,-19.99999zM463.9037,26.5c7.674,-0.16635 15.3405,0.0003 23,0.5c-3.7075,6.58235 -7.54051,13.08234 -11.50001,19.5c-4.098,-6.5309 -7.931,-13.19754 -11.5,-19.99999zM281.40371,53c7.6685,-0.0835 15.335,0 23,0.25c-3.8535,6.6245 -7.7705,13.208 -11.75,19.75c-3.8885,-6.613 -7.6385,-13.2795 -11.25,-20zM309.9037,53c7.6685,-0.0835 15.335,0 23,0.25c-3.8535,6.6245 -7.7705,13.208 -11.75,19.75c-3.8885,-6.613 -7.6385,-13.2795 -11.25,-20zM337.4037,53c7.6685,-0.0835 15.335,0 23,0.25c-3.8535,6.6245 -7.7705,13.208 -11.75,19.75c-3.8885,-6.613 -7.6385,-13.2795 -11.25,-20zM365.4037,53.5c7.586,-0.663 15.25249,-0.663 23,0c-3.75,6.5 -7.5,13 -11.25,19.5c-3.8485,-6.5855 -7.765,-13.0855 -11.75,-19.5zM393.9037,53.5c7.586,-0.663 15.2525,-0.663 23,0c-3.75,6.5 -7.5,13 -11.25,19.5c-3.8485,-6.5855 -7.76501,-13.0855 -11.75,-19.5zM421.4037,53.5c7.586,-0.663 15.2525,-0.663 23,0c-3.75,6.5 -7.5,13 -11.25,19.5c-3.8485,-6.5855 -7.76501,-13.0855 -11.75,-19.5zM448.9037,53.5c7.586,-0.663 15.2525,-0.663 23,0c-3.75,6.5 -7.50001,13 -11.25001,19.5c-3.9295,-6.532 -7.846,-13.03201 -11.75,-19.5zM477.40371,53.5c7.586,-0.663 15.25249,-0.663 23,0c-3.75,6.5 -7.5,13 -11.25,19.5c-3.9295,-6.532 -7.846,-13.03201 -11.75,-19.5zM296.9037,81.5c7.245,-0.498 14.5785,-0.6645 22,-0.5c-2.185,3.3825 -4.185,6.8825 -6,10.5c-0.6665,0 -1,0.3335 -1,1c-0.3335,0.8335 -0.6665,1.66651 -1,2.5c-0.774,0.1605 -1.10751,0.66049 -1,1.49999c-0.526,1.1355 -1.276,2.13551 -2.25,3c-2.5325,-3.4585 -4.7825,-7.1255 -6.75,-11c0,-0.6665 -0.3335,-1 -1,-1c-0.986,-1.998 -1.986,-3.99801 -3,-6.00001zM346.9037,81.5c-0.9225,1.178 -1.589,2.5115 -2,4c-0.6665,0 -1,0.33351 -1,1c-0.3335,0.8335 -0.6665,1.6665 -1,2.5c-0.6665,0 -1,0.33351 -1,1c-1.683,3.2835 -3.5995,6.45 -5.75,9.5c-1.197,-1.5875 -2.2805,-3.254 -3.25,-5c0,-0.6665 -0.3335,-1 -1,-1c-0.1965,-0.892 -0.5295,-1.72501 -1,-2.5c0,-0.6665 -0.3335,-1 -1,-1c-0.196,-0.8395 -0.446,-1.673 -0.75,-2.5c-1.386,-1.944 -2.636,-3.944 -3.75,-6.00001c7.1665,-0.6665 14.3335,-0.6665 21.5,0zM352.9037,81.5c7.245,-0.498 14.5785,-0.6645 22,-0.5c-2.185,3.3825 -4.185,6.8825 -6,10.5c-0.6665,0 -1,0.3335 -1,1c-0.3335,0.8335 -0.6665,1.66651 -1,2.5c-0.774,0.1605 -1.10751,0.66049 -1,1.49999c-0.526,1.1355 -1.276,2.13551 -2.25,3c-2.5325,-3.4585 -4.7825,-7.1255 -6.75,-11c0,-0.6665 -0.3335,-1 -1,-1c-0.986,-1.998 -1.986,-3.99801 -3,-6.00001zM402.9037,81.5c-2.672,4.372 -5.3385,9.039 -8,14c-0.6665,0 -1,0.3335 -1,1c-0.883,3.755 -2.2165,3.92201 -4,0.50001c-0.337,-0.8475 -0.6705,-1.681 -1,-2.5c0,-0.6665 -0.33351,-1 -1,-1c-0.3335,-0.8335 -0.6665,-1.66651 -1,-2.5c0,-0.6665 -0.33351,-1 -1,-1c-0.8435,-1.93 -1.8435,-3.7635 -3,-5.5c0,-0.6665 -0.3335,-1 -1,-1c0.086,-0.496 -0.081,-0.829 -0.5,-1c0,-0.5 0,-1 0,-1.5c7.255,-0.1645 14.42149,0.002 21.5,0.5zM409.4037,81c7.4215,-0.1645 14.755,0.002 22,0.5c-3.856,6.085 -7.5225,12.252 -11,18.5c-0.598,-0.8225 -1.098,-1.65549 -1.5,-2.5c0,-0.6665 -0.33351,-1 -1,-1c-2.7135,-5.262 -5.54649,-10.429 -8.5,-15.5zM458.90371,81.5c-1.1325,1.0405 -1.799,2.374 -2.00001,4c-0.6665,0 -1,0.33351 -1,1c-1.9195,2.837 -3.586,5.837 -5,9c-0.6665,0 -1,0.3335 -1,1c-0.883,3.755 -2.21651,3.92201 -4.00001,0.50001c-0.337,-0.8475 -0.6705,-1.681 -1,-2.5c0,-0.6665 -0.33351,-1 -1,-1c-0.3335,-0.8335 -0.6665,-1.66651 -1,-2.5c0,-0.6665 -0.33351,-1 -1,-1c-0.8435,-1.93 -1.84349,-3.7635 -3,-5.5c0,-0.6665 -0.33351,-1 -1,-1c0.086,-0.496 -0.081,-0.829 -0.5,-1c0,-0.5 0,-1 0,-1.5c7.255,-0.1645 14.4215,0.002 21.5,0.5zM485.9037,81.5c-0.9985,1.998 -1.9985,3.99801 -3,6.00001c-0.6665,0 -1,0.3335 -1,1c-1.7955,3.8855 -3.962,7.552 -6.5,11c-1.6835,-2.2205 -3.1835,-4.554 -4.5,-7c0,-0.6665 -0.33351,-1 -1,-1c-0.977,-1.997 -1.977,-3.997 -3,-6.00001c0,-0.6665 -0.33351,-1 -1,-1c-0.3335,-1 -0.6665,-2 -1,-3c7,-0.6665 14,-0.6665 21,0zM308.4037,139.5c1.0775,-0.064 2.0775,0.18599 3,0.75c2.0835,2.75 4.5,5.1665 7.25,7.25c0.683,0.935 1.2665,1.935 1.75,3c-0.1935,0.61 -0.61,0.9435 -1.25,1c-4.492,-1.3455 -8.9085,-1.09549 -13.25,0.75c-0.313,0.375 -0.563,0.792 -0.75,1.25c-0.3335,2.3335 -0.3335,4.6665 0,7c1.1865,1.175 2.4365,1.2585 3.75,0.25c1.5475,-2.0925 3.214,-4.0925 5,-6c1.311,-0.9025 2.6445,-0.9025 4,0c2.4165,2.0835 4.8335,4.1665 7.25,6.25c0.3335,-0.3335 0.6665,-0.6665 1,-1c0.1665,-5.1665 0.3335,-10.3335 0.5,-15.5c0.4165,-0.75 1,-1.3335 1.75,-1.75c4.7225,0.0895 9.3895,0.673 14,1.75c-2.506,2.242 -3.17301,4.99201 -2.00001,8.25c0.491,1.0045 1.15751,1.2545 2.00001,0.75c0.975,6.8005 1.22499,13.6335 0.75,20.5c-3.978,2.1395 -8.228,2.973 -12.75,2.5c-0.3935,-4.823 -0.56,-9.656 -0.5,-14.5c-3.0045,-0.083 -6.0045,0.0005 -9,0.25c-0.6665,0.3335 -1.3335,0.6665 -2,1c-4.384,0.029 -8.7175,0.3625 -13,1c-1.3335,1.1665 -1.3335,2.3335 0,3.5c6.639,-1.395 12.639,-0.062 18,4c4.4675,5.194 3.80049,9.5275 -2.00001,13c-1.8985,0.295 -3.732,0.045 -5.5,-0.75c-1.6565,-3.383 -3.07349,-6.88301 -4.25,-10.5c-1.116,-1.9125 -2.116,-1.9125 -3,0c-0.4815,6.1685 -0.9815,12.3355 -1.5,18.5c-3.839,1.951 -7.922,2.7845 -12.25,2.5c-0.239,-3.8315 -0.489,-7.665 -0.75,-11.5c-0.437,-1.138 -1.2705,-1.805 -2.5,-2c-5.87,3.06 -11.7865,6.06 -17.75,9c-0.1665,-0.1665 -0.3335,-0.3335 -0.5,-0.5c2.781,-2.696 5.281,-5.6125 7.5,-8.75c-0.414,-0.4575 -0.914,-0.79051 -1.5,-1c2.6025,-3.955 4.6025,-8.205 6,-12.75c-0.267,-1.057 -0.767,-1.974 -1.5,-2.75c-4.1545,-0.4785 -8.321,-0.812 -12.5,-1c-0.4185,-0.5055 -0.585,-1.089 -0.5,-1.74999c5.5025,0.0835 11.0025,-0.00001 16.5,-0.25001c3.9265,-2.0375 4.4265,-4.70449 1.5,-8c-5.846,-0.134 -11.6795,-0.46699 -17.5,-1c12.551,-3.3215 24.7175,-7.5715 36.5,-12.75zM364.9037,154c0.004,10.17 -0.16251,20.337 -0.50001,30.5c-0.911,2.9025 -2.411,5.4855 -4.5,7.75c0.588,1.343 1.4215,2.5095 2.5,3.5c-0.538,0.863 -0.6215,1.7795 -0.25,2.75c2.1675,1.5845 4.084,3.41799 5.75,5.49999c-7.688,0.739 -15.355,0.5725 -23,-0.5c-3.504,-0.083 -7.004,0 -10.5,0.25c-0.5735,1.0425 -0.24,1.79251 1,2.25001c0.463,1.272 0.963,2.522 1.5,3.75c10.0785,4.582 20.5785,7.7485 31.5,9.5c-4.9895,2.5735 -8.4895,6.4905 -10.5,11.75c-1.2235,0.8615 -2.5565,1.11151 -4,0.75c-9.7515,-4.0005 -17.2515,-10.584 -22.5,-19.75c-1.5315,-1.3035 -2.948,-1.137 -4.25001,0.5c-0.167,7.0085 -0.5005,14.0085 -1,21c-4.589,1.926 -9.339,2.59301 -14.25,2.00001c0,-1.3335 0,-2.6665 0,-4.00001c0.0105,-4.341 0.177,-8.674 0.5,-13c1.652,-0.322 2.319,-1.322 2,-3c-6.501,4.0525 -13.3345,7.6355 -20.5,10.75c-6.0075,2.3935 -12.1745,4.06049 -18.5,4.99999c9.5965,-5.2615 18.01301,-12.0115 25.25,-20.25c1.083,-1.4165 1.833,-3 2.25,-4.75c-0.245,-0.991 -0.745,-1.82451 -1.5,-2.5c-8.8345,-0.255 -17.66749,-0.505 -26.5,-0.75c0,-0.5 0,-1 0,-1.5c9.585,-0.168 19.085,-0.5015 28.5,-1c3.3375,0.083 6.671,-0.00001 10,-0.25001c0.6005,-0.4515 1.0175,-1.03449 1.25,-1.74999c0.1535,-2.691 0.48699,-5.3575 1,-8c1.1235,-0.74 2.3735,-1.0735 3.75,-1c4.33,0.4495 8.6635,0.86649 13,1.25c0.2285,0.207 0.3955,0.45701 0.5,0.75c-3.651,2.971 -3.818,6.0545 -0.5,9.25c6.012,0.333 12.012,0.16599 18,-0.50001c1.309,-1.3695 2.559,-2.7865 3.75,-4.25c0.2215,-2.437 -0.862,-3.27 -3.25,-2.5c-0.719,-0.1095 -1.3855,-0.35951 -2,-0.75c-0.781,-4.2275 -2.948,-7.56099 -6.5,-10c-1.1215,-0.568 -2.288,-0.985 -3.5,-1.25c-0.209,-0.361 -0.542,-0.611 -1,-0.75c3.2565,-0.086 6.4235,-0.336 9.5,-0.75c1.3095,0.134 2.5595,-0.03251 3.75,-0.50001c0.3335,-9.5 0.3335,-19 0,-28.5c-0.908,-0.9705 -1.908,-1.30401 -3,-1c-1.097,-2.585 -0.93,-5.085 0.5,-7.5c4.897,-0.633 9.8135,-0.5495 14.75,0.25c0.3555,0.6275 0.772,1.2105 1.25,1.75c0.25,3.1625 0.333,6.329 0.25,9.5zM419.4037,142.5c22.5,0 45,0 67.5,0c0,22.5 0,45 0,67.5c-7.1225,0.162 -14.20601,-0.00501 -21.25,-0.50001c-1.228,-8.0125 -2.478,-16.0125 -3.75,-24c2.1275,-6.3765 2.544,-12.8765 1.25,-19.5c-1.689,-1.2615 -3.5225,-2.2615 -5.5,-3c0.599,-2.1445 0.2655,-4.1445 -1,-6c-0.9485,-0.758 -2.03199,-1.0915 -3.24999,-1c-0.8015,2.411 -0.46801,4.661 1,6.75c-1.1065,1.137 -2.4395,1.887 -4,2.25c-2.1535,6.907 -1.9035,13.7405 0.75,20.5c0.8825,8.1575 1.6325,16.32451 2.25001,24.50001c-5.6665,0 -11.33351,0 -17.00001,0c-0.06,-0.8495 -0.22699,-1.68251 -0.5,-2.5c1.4545,-10.5145 2.9545,-21.0145 4.5,-31.5c-0.434,-2.654 -0.851,-5.321 -1.25,-8c-1.458,-0.7705 -2.8745,-1.60349 -4.25,-2.5c-0.416,-2.496 -0.7495,-4.996 -1,-7.5c-4.9125,0.0775 -6.079,2.1605 -3.5,6.25c-1.0725,1.287 -2.406,2.2035 -4,2.75c-0.761,1.5645 -1.1775,3.2315 -1.25,5c-0.3335,4 -0.3335,8 0,12c1.2185,1.438 1.885,3.10499 2,4.99999c0.3925,7.0215 0.976,14.0215 1.75,21c-3.1665,0 -6.3335,0 -9.5,0c0,-22.5 0,-45 0,-67.5zM225.4037,143.5c9.586,-0.831 13.836,3.502 12.75,13c-4.031,7.135 -9.4475,8.385 -16.25,3.75c-3.9645,-4.8245 -3.9645,-9.658 0,-14.5c1.199,-0.762 2.3655,-1.512 3.5,-2.25zM218.9037,166c3.8195,2.4115 7.6525,4.828 11.5,7.25c2.6615,0.2495 5.328,0.333 8,0.25c0,1 0,2 0,3c-2.838,-0.083 -5.67149,0.0005 -8.5,0.25c-3.713,2.231 -7.296,4.6475 -10.75,7.25c-0.353,-1.2355 -0.1865,-2.4025 0.5,-3.5c2.7065,-1.9785 5.4565,-3.895 8.25,-5.75c-2.414,-1.7905 -4.914,-3.4575 -7.5,-5c-1.1235,-0.9975 -1.6235,-2.2475 -1.5,-3.75zM456.4037,187c2.9135,7.3235 4.7465,14.99001 5.5,23c-2.0275,0.162 -4.0275,-0.00451 -6,-0.50001c0.002,-7.486 0.1685,-14.986 0.5,-22.5zM218.9037,188c6.3335,0 12.6665,0 19,0c0,1 0,1.99999 0,3c-6.3335,0 -12.6665,0 -19,0c0,-1 0,-1.99999 0,-3zM431.9037,190c1.2375,2.024 1.904,4.274 2,6.75c-0.2865,4.5045 -0.8695,8.9215 -1.75,13.25c-0.25,-6.6645 -0.3335,-13.3315 -0.25,-20zM218.9037,196c6.3335,0 12.6665,0 19,0c0,1 0,2 0,3c-2.6665,0 -5.3335,0 -8,0c0,3.6665 0,7.3335 0,11c2.6665,0 5.3335,0 8,0c0,1 0,1.99999 0,3c-6.3335,0 -12.6665,0 -19,0c0,-1 0,-1.99999 0,-3c2.6665,0 5.3335,0 8,0c0,-3.6665 0,-7.3335 0,-11c-2.6665,0 -5.3335,0 -8,0c0,-1 0,-2 0,-3zM223.9037,217c1.1005,0.179 1.7675,0.846 2.00001,2c-0.9915,1.242 -2.075,2.4085 -3.25,3.5c-2.0125,7.6545 0.904,10.9045 8.75,9.75c5.839,-4.2385 5.839,-8.4885 0,-12.75c0.3335,-0.6665 0.6665,-1.3335 1,-2c0.251,-0.5105 0.584,-0.594 1,-0.25c5.0995,3.674 6.3495,8.42399 3.75,14.24999c-5.85,6.13 -11.5165,5.9635 -17.00001,-0.5c-2.327,-5.6955 -1.077,-10.362 3.75,-14zM236.9037,238c1.111,0.0295 1.611,0.6125 1.5,1.75c-0.7355,1.379 -1.9025,2.29549 -3.5,2.75c-0.6665,3.1665 -0.6665,6.3335 0,9.5c1.4695,0.478 2.636,1.3115 3.5,2.5c-0.1095,0.719 -0.3595,1.3855 -0.75,2c-6.0485,-2.315 -12.132,-4.565 -18.25,-6.75c-0.5365,-1.556 -0.5365,-3.1395 0,-4.75c6.0245,-1.9505 11.858,-4.284 17.5,-7zM419.4037,238.5c22.5,0 45,0 67.5,0c0,22.5 0,45 0,67.5c-22.5,0 -45,0 -67.5,0c0,-22.5 0,-45 0,-67.5zM283.9037,243c0.715,-0.0395 1.382,0.127 2,0.5c0.5265,1.6575 0.5265,3.324 0,5c1.5,0 3,0 4.5,0c0.219,-1.786 0.55201,-3.536 1,-5.25c2.1175,-0.55 2.9505,0.2835 2.5,2.5c-0.2455,3.5915 -0.579,7.1745 -1,10.75c-0.6665,0.6665 -1.3335,0.6665 -2,0c-0.4945,-1.8035 -0.6615,-3.637 -0.50001,-5.5c-1.5,0 -3,0 -4.5,0c0,2 0,4 0,6c-0.881,0.0715 -1.7145,-0.0955 -2.5,-0.5c-0.523,-4.518 -0.356,-9.018 0.5,-13.5zM303.4037,243c2.3575,0.003 4.691,0.25299 7,0.75c1.9465,1.2325 2.4465,2.899 1.5,5c2.2265,5.1315 0.56,7.8815 -5,8.25c-1.179,-0.1265 -2.346,-0.293 -3.5,-0.5c0,-4.5 0,-9 0,-13.5zM318.40371,243c1.052,-0.1495 2.05199,0.017 3,0.5c2.036,3.981 3.536,8.1475 4.5,12.5c-2.135,1.3465 -3.3015,0.68 -3.5,-2c-1.536,-0.1585 -3.036,0.008 -4.5,0.5c-0.3425,1.0235 -0.9255,1.857 -1.75,2.5c-0.8105,-0.1125 -1.394,-0.529 -1.75,-1.25c1.374,-4.2475 2.70701,-8.49749 4.00001,-12.74999zM328.4037,243c2.5,0 5,0 7.5,0c0.1195,0.9835 -0.047,1.90049 -0.5,2.75c-1.4735,-0.076 -2.9735,-0.1595 -4.5,-0.25c-0.1665,1 -0.3335,2 -0.5,3c1.5,0 3,0 4.5,0c0.0395,0.715 -0.127,1.382 -0.5,2c-1.293,0.49 -2.6265,0.6565 -4,0.5c0,1 0,2 0,3c1.6665,0 3.3335,0 5,0c0.0715,0.881 -0.0955,1.7145 -0.50001,2.5c-2.496,0.546 -4.996,0.546 -7.5,0c-0.0215,-4.53 0.3115,-9.03 1,-13.5zM344.9037,243c1.2355,-0.1335 2.069,0.3665 2.5,1.49999c-0.083,2.5195 0.16701,5.0195 0.75,7.5c0.997,-2.6435 1.997,-5.31 3,-8c0.8495,-0.453 1.76651,-0.6195 2.75,-0.5c-0.3265,3.2165 0.0905,6.383 1.25,9.5c0.84,-2.943 1.59001,-5.943 2.25001,-9c0.618,-0.373 1.285,-0.5395 2,-0.5c-0.719,4.3045 -1.219,8.6375 -1.5,13c-1.21,0.104 -2.3765,-0.063 -3.5,-0.5c-1.261,-2.3665 -2.178,-4.8665 -2.75,-7.5c-0.981,2.578 -1.3975,5.24449 -1.25,8c-1.4745,0.2565 -2.891,0.2565 -4.25,0c-1.0505,-4.438 -1.467,-8.938 -1.25,-13.5zM364.9037,243c1.44,-0.2335 2.6065,0.183 3.5,1.25c1.117,3.768 2.28399,7.518 3.49999,11.25c-0.719,1.6615 -1.63549,1.82801 -2.75,0.50001c-0.245,-0.6465 -0.3285,-1.3135 -0.25,-2c-1.6665,0 -3.3335,0 -5,0c0.243,2.0045 -0.59,2.921 -2.5,2.75c-0.261,-0.2805 -0.4275,-0.61401 -0.5,-1c1.374,-4.2475 2.707,-8.49749 4,-12.74999zM273.90371,243.5c2.29,-0.1935 4.457,0.2235 6.5,1.25c-0.3275,0.7435 -0.8275,1.32649 -1.5,1.74999c-2.289,-1.484 -4.039,-0.984 -5.25,1.5c-1.141,4.7515 0.609,6.585 5.25,5.5c0.573,0.3225 1.073,0.73901 1.5,1.25c-3.712,3.201 -6.795,2.6175 -9.25,-1.75c-0.9625,-3.7765 -0.04599,-6.9435 2.75,-9.5zM296.9037,243.5c0.8335,0 1.6665,0 2.5,0c0.519,4.337 0.519,8.6705 0,13c-0.6665,0.6665 -1.3335,0.6665 -2,0c-0.499,-4.3205 -0.6655,-8.654 -0.5,-13zM338.90371,243.5c0.881,-0.0715 1.7145,0.0955 2.5,0.5c0.6665,4.1665 0.6665,8.3335 0,12.5c-0.618,0.373 -1.285,0.5395 -2,0.5c-0.1905,-4.499 -0.35699,-8.999 -0.5,-13.5zM218.9037,257c3.59,2.502 7.2565,4.9185 11,7.25c2.8285,0.2495 5.662,0.333 8.5,0.25c0,1 0,2 0,3c-2.672,-0.083 -5.3385,0.0005 -8,0.25c-3.713,2.231 -7.296,4.6475 -10.75,7.25c-0.7435,-0.886 -0.91,-1.88601 -0.5,-3c2.9165,-1.9165 5.8335,-3.8335 8.75,-5.75c-2.8725,-2.1445 -5.7895,-4.228 -8.75,-6.25c-0.2475,-0.9865 -0.331,-1.9865 -0.25,-3zM314.4037,274.5c0.209,0.361 0.542,0.611 1,0.75c3.8335,0.3335 7.6665,0.3335 11.5,0c0.458,-0.139 0.791,-0.38899 1,-0.75c1.055,-0.4765 1.6385,-1.30951 1.75,-2.5c0.1665,-2.6665 0.3335,-5.3335 0.5,-8c1.153,-1.194 2.56949,-1.694 4.25,-1.5c3.8355,0.3985 7.6685,0.815 11.5,1.25c0.3335,0.3335 0.6665,0.6665 1,1c-2.9585,2.3245 -3.7085,5.241 -2.25,8.75c1.9575,2.025 4.20749,2.4415 6.75,1.25c1.8785,-1.543 3.3785,-3.376 4.5,-5.5c3.896,-0.812 7.2295,0.188 10,3c1.25,1.25 2.5,2.5 3.75,3.75c0.3085,0.4745 0.2255,0.891 -0.25,1.25c-8.0075,0.167 -16.0075,0.50001 -24,1c-0.6965,0.5855 -1.1135,1.3355 -1.25,2.25c-0.1665,1.6665 -0.3335,3.3335 -0.5,5c-0.408,0.6615 -0.9915,0.9945 -1.75,1c-3.7925,0.755 -7.6255,1.255 -11.5,1.5c-0.4145,-2.9265 -0.831,-5.9265 -1.25,-9c-0.4515,-0.6005 -1.0345,-1.0175 -1.75,-1.25c-4.1665,-0.3335 -8.3335,-0.3335 -12.49999,0c-0.5835,0.5835 -1.1665,1.1665 -1.75,1.75c-0.1665,2 -0.33351,4.00001 -0.50001,6.00001c-0.187,0.458 -0.437,0.875 -0.75,1.25c-4.213,1.456 -8.546,2.039 -13,1.75c0.083,-2.838 -0.0005,-5.67149 -0.25,-8.5c-0.4165,-0.75 -1,-1.3335 -1.75,-1.75c-7.6595,-0.5685 -15.32599,-0.985 -23,-1.25c0,-0.5 0,-1 0,-1.5c1.8335,0 3.66649,0 5.49999,0c5.5025,0.0835 11.0025,0 16.5,-0.25c0.458,-0.139 0.791,-0.38899 1,-0.75c0.647,-0.395 1.2305,-0.895 1.75,-1.5c0.1955,-3.1815 0.52899,-6.3485 1,-9.5c0.998,-0.7795 2.1645,-1.11301 3.5,-1c4.299,0.238 8.549,0.8215 12.75,1.75c-2.9055,2.4005 -3.82199,5.484 -2.75,9.25c0.354,0.4405 0.771,0.7735 1.25,1zM301.4037,358.5c-3.891,1.255 -7.891,1.755 -12,1.5c-0.3535,-1.643 -0.52,-3.30951 -0.5,-5c0.1485,-1.913 1.065,-3.413 2.75,-4.5c0.2495,-2.3275 0.333,-4.6605 0.25,-7c0.58,-6.2465 0.6635,-12.58 0.25,-19c-0.1665,-0.6665 -0.3335,-1.3335 -0.5,-2c-0.3355,-0.376 -0.752,-0.543 -1.25,-0.50001c-0.784,-0.4865 -1.6175,-0.57 -2.5,-0.25c-4.2475,2.2065 -8.414,4.54 -12.5,7c-0.8335,0.3335 -1.6665,0.3335 -2.5,0c9.5385,-10.9835 17.1215,-23.2335 22.75,-36.75c1.1255,-1.813 2.709,-2.3965 4.75,-1.75c4.7825,1.7245 9.4495,3.7245 14,6c-1.085,0.793 -2.252,1.46 -3.49999,2c-2.357,2.963 -4.7735,5.8795 -7.25,8.75c-0.3335,1.1665 -0.3335,2.3335 0,3.5c1.8005,0.7745 3.3835,1.858 4.75,3.25c-0.75,0.75 -1.5,1.5 -2.25,2.25c-0.1665,9.3335 -0.3335,18.6665 -0.5,28c-0.8335,0.6665 -1.66651,1.3335 -2.5,2c-0.466,3.9885 -0.79899,7.98851 -1,12c-0.1915,0.278 -0.44151,0.4445 -0.75,0.5zM360.90371,331.5c0.703,-0.2365 1.0365,-0.73649 1,-1.49999c0.3335,2.8335 0.6665,5.66649 1,8.5c-0.6625,3.581 0.5875,6.24801 3.75,8c2.1165,4.3175 1.033,7.5675 -3.25,9.75c-3.2895,0.8815 -6.62301,1.5485 -10,2c-8.5,0.3335 -16.99999,0.3335 -25.49999,0c-2.9455,-0.5145 -5.529,-1.7645 -7.75,-3.75c-1.7315,-4.9135 -2.0645,-9.9135 -1,-15c0.8335,-0.5 1.6665,-1 2.5,-1.5c0.1665,-14.6665 0.33351,-29.3335 0.50001,-44c0.1515,-1.194 0.5685,-2.2775 1.25,-3.25c5.313,-0.523 10.4795,0.06 15.5,1.75c-1.3765,0.7945 -2.293,1.961 -2.75,3.5c-0.453,5.5295 -0.2865,11.0295 0.5,16.5c0.5,0.8335 1.16651,1.5 2.00001,2c1.6015,-0.635 2.935,-1.63499 4,-3c3.0835,-4.75 6.1665,-9.5 9.25,-14.25c1.81,-0.4205 3.477,-0.087 4.99999,1c3.1985,2.3635 6.532,4.53001 10,6.5c0.7685,0.555 1.1015,1.305 1,2.25c-1.8735,-0.054 -3.707,0.196 -5.5,0.75c-7.987,5.4535 -16.4035,10.2035 -25.25,14.24999c-0.431,0.7935 -0.76451,1.62701 -1,2.5c-0.1665,2.3335 -0.3335,4.6665 -0.5,6.99999c-0.8335,0.6665 -1.6665,1.33351 -2.5,2.00001c-0.291,3.676 -0.2075,7.34249 0.25,10.99999c6.83,0.4105 13.6635,0.49351 20.5,0.25001c1.23,-0.729 2.3135,-1.6455 3.25,-2.75c1.699,-3.347 2.949,-6.847 3.75,-10.5zM419.4037,335.5c22.5,0 45,0 67.5,0c0,22.5 0,45 0,67.5c-7.6665,0 -15.3335,0 -23,0c-1.241,-5.966 -2.3245,-11.966 -3.25,-18c-0.4455,-7.187 -0.2785,-14.35399 0.50001,-21.5c0.81,-0.8705 1.56,-1.78751 2.25,-2.75c5.541,-2.236 11.041,-4.569 16.5,-7c0.6805,-0.792 1.014,-1.709 1,-2.75c-1.525,-0.2885 -2.525,0.295 -3,1.75c-5.614,2.3455 -11.44751,3.34551 -17.5,3c0.686,-1.7705 0.603,-3.5205 -0.25,-5.25c-2.7845,-0.8975 -4.5345,0.10249 -5.25,3c0.789,1.7185 0.6225,3.302 -0.5,4.75c-1.9,1.3015 -3.9835,2.218 -6.25,2.75c-0.946,-0.1385 -1.6125,-0.63849 -2,-1.49999c-0.3925,0.893 -0.9755,1.643 -1.75,2.25c2.436,0.694 4.936,0.94399 7.5,0.75c-0.5845,4.091 -1.2515,8.1745 -2,12.25c1.0415,8.578 1.125,17.1615 0.25,25.75c-0.75,0.75 -1.5,1.5 -2.25,2.25c-9.4985,0.25 -18.99851,0.3335 -28.5,0.25c0,-22.5 0,-45 0,-67.5zM276.9037,366.5c4.499,-0.0855 6.4155,2.081 5.75,6.5c-1.064,1.565 -2.314,2.9815 -3.75,4.25c1.691,0.088 3.3575,0.33801 5,0.75c0.373,0.618 0.5395,1.285 0.5,2c-3.679,-0.041 -7.3455,0.126 -11,0.5c-0.0745,-0.526 0.0085,-1.026 0.25,-1.5c2.3335,-1.6665 4.3335,-3.6665 6.00001,-6c0.843,-4.058 -0.5735,-5.058 -4.25001,-3c-0.573,-0.3225 -1.073,-0.739 -1.49999,-1.25c1.092,-0.6815 2.09199,-1.4315 3,-2.25001zM339.9037,378c0,0.6665 0,1.3335 0,2c-3.7065,0.314 -7.2065,-0.0195 -10.5,-1c2.852,-2.187 5.1855,-4.8535 6.99999,-8c-1.201,-2.77 -2.86749,-3.1035 -4.99999,-1c-0.573,-0.3225 -1.073,-0.739 -1.5,-1.25c2.17,-2.1675 4.67,-2.6675 7.5,-1.5c2.174,3.9935 1.341,7.32699 -2.5,10c1.7625,0.0895 3.4295,0.3395 5,0.75zM358.9037,366.5c2.6875,-0.164 5.35401,0.0025 8,0.50001c-0.823,2.36 -2.4065,3.0265 -4.75,2c-1.8385,0.5765 -2.0885,1.493 -0.75,2.75c3.404,-0.178 5.404,1.405 6,4.75c-2.6665,4.3715 -6.1665,5.1215 -10.5,2.25c1.1645,-1.3685 2.49801,-1.452 4.00001,-0.25c2.345,-0.115 3.26149,-1.282 2.75,-3.5c-1.747,-0.9385 -3.6635,-1.272 -5.75,-1c0.3335,-2.5 0.6665,-5 1,-7.5zM303.9037,367c7.5925,-0.1585 10.0095,3.3415 7.25,10.5c-3.939,4.4265 -6.939,3.9265 -9,-1.5c-1.382,-3.4185 -0.799,-6.41849 1.75,-8.99999zM387.4037,367.5c1.211,0.2925 2.0445,1.0425 2.5,2.25c-3.352,2.4135 -3.852,5.3305 -1.5,8.75c0.5,0.25 1,0.5 1.5,0.75c4.497,0.25 8.99701,0.333 13.50001,0.25c0,1 0,2 0,3c-4.6695,0.083 -9.3365,0 -14,-0.25c-5.3955,-2.374 -6.9785,-6.291 -4.75,-11.75c1.02,-0.935 1.9365,-1.935 2.75,-3zM454.9037,386c0.818,0.6245 1.4015,1.45799 1.75,2.5c1.1635,4.487 2.247,8.987 3.25,13.50001c-0.1045,0.293 -0.2715,0.543 -0.5,0.75c-1.6585,0.249 -3.325,0.3325 -5,0.25c-0.564,-5.691 -0.3975,-11.358 0.5,-17zM292.40371,386.5c4.652,0.856 9.152,2.2725 13.5,4.25c0.3335,0.3335 0.6665,0.6665 1,1c-2.5365,0.703 -4.28649,2.28601 -5.24999,4.75c-0.342,0.642 -0.2585,1.2255 0.25,1.75c1.5,0.3335 3,0.3335 4.5,0c1.7385,-1.7835 3.572,-3.45001 5.5,-5c1.3335,-0.3335 2.6665,-0.3335 4,0c1.9065,2.3645 4.24,4.1145 7,5.25c1.1305,-0.424 1.6305,-1.25751 1.5,-2.5c-0.5815,-2.4835 -0.83151,-4.9835 -0.75,-7.5c2.02,5.343 4.853,10.1765 8.5,14.5c0.976,1.197 2.226,1.947 3.75,2.25c1.6785,2.1865 3.762,3.77 6.25,4.75c1.2515,-0.245 2.2515,-0.9115 3,-2c1.5075,-2.848 2.591,-5.848 3.25,-9c-4.8095,-0.0465 -9.643,-0.1295 -14.5,-0.25c-0.4285,-0.3445 -0.7615,-0.761 -1,-1.25c4.6345,-0.73 9.3015,-1.1465 14,-1.25c1.985,-2.4875 4.4015,-4.4045 7.25,-5.75c2.5385,2.062 5.2885,3.812 8.25,5.25c1.5255,1.357 2.859,2.85701 4.00001,4.5c-4.9805,3.305 -9.98051,6.638 -15.00001,10c-0.9265,1.02 -1.593,2.1865 -2,3.5c0.645,1.146 1.4785,2.14601 2.5,3c5.8855,2.776 11.8855,5.276 17.99999,7.5c-2.39,0.778 -4.5565,1.9445 -6.5,3.49999c-1.954,2.2425 -3.787,4.576 -5.5,7c-1.0975,0.6865 -2.2645,0.85301 -3.5,0.50001c-11.2715,-6.7715 -19.5215,-16.18801 -24.75,-28.25001c-1.6045,-0.789 -2.688,-2.039 -3.25,-3.75c-1.992,-0.893 -3.742,-0.47649 -5.25,1.25c-1.0195,2.1225 -2.103,4.20599 -3.25,6.25c0.5085,0.5245 0.592,1.108 0.25,1.75c-3.924,5.2555 -7.8405,10.5055 -11.75,15.75c0.245,0.991 0.745,1.8245 1.5,2.5c5.8335,0.3335 11.6665,0.3335 17.5,0c1.8335,-2.1665 3.6665,-4.3335 5.5,-6.5c1.3335,-1 2.6665,-1 4,0c2.6665,2.6665 5.33351,5.3335 8,8c-0.3335,0.3335 -0.6665,0.6665 -1,1c-13.3405,0.389 -26.67399,0.222 -40,-0.5c-0.4165,-0.75 -1,-1.3335 -1.75,-1.75c-7.603,5.0925 -15.853,8.7595 -24.75,11c7.0625,-4.4395 13.6455,-9.9395 19.75,-16.5c1.1665,-1.5 2.3335,-3 3.5,-4.5c0.335,-1.7555 0.9185,-3.422 1.75,-5c-0.9485,-1.333 -2.282,-2.083 -4,-2.25c-1.0225,-1.293 -1.85551,-2.70999 -2.5,-4.25c-1.1315,-1.077 -2.298,-1.1605 -3.5,-0.25001c-1.137,0.8825 -1.9705,1.966 -2.5,3.25c0.054,0.471 0.2205,0.8875 0.5,1.25c1.792,1.0205 3.542,2.104 5.25,3.25c3.391,4.219 2.4745,7.05249 -2.75,8.5c-1.2895,-0.18 -2.5395,-0.51299 -3.75,-1c-0.386,0.0725 -0.7195,0.239 -1,0.5c-0.349,-2.4365 -1.016,-4.77 -2,-7c-1.1585,-1.2985 -2.57499,-1.715 -4.25,-1.25c-1.92,1.2105 -3.92,2.294 -6,3.24999c-0.1665,-0.1665 -0.33351,-0.3335 -0.50001,-0.5c7.8475,-9.522 13.76401,-20.1885 17.75,-32c0.4975,-0.283 0.914,-0.6165 1.25,-1zM390.9037,387c4.1665,0 8.3335,0 12.5,0c0,1 0,2 0,3c-4.5165,-0.053 -9.01651,0.197 -13.50001,0.75c-3.112,2.0025 -4.0285,4.75251 -2.75,8.25c0.976,1.197 2.226,1.947 3.75,2.25c4.1635,0.25 8.33,0.333 12.5,0.25c0,1 0,2 0,3c-4.3365,0.083 -8.67,0 -13.00001,-0.25c-5.7,-1.9825 -7.783,-5.89951 -6.25,-11.75c1.308,-3.064 3.558,-4.897 6.75,-5.5zM386.4037,424.5c-0.6665,0 -1.3335,0 -2,0c0,-4 0,-8 0,-12c0,-1.3335 0,-2.6665 0,-4c6.3335,0 12.66651,0 19.00001,0c0,1 0,2 0,3c-5.3335,0 -10.6665,0 -16,0c0.318,4.5325 -0.015,8.8655 -1,13zM402.4037,427c0.9705,0.7555 1.2205,1.7555 0.75,3c-2.9605,2.022 -5.8775,4.1055 -8.74999,6.25c2.9165,1.9165 5.83349,3.8335 8.74999,5.75c0.3175,1.0675 0.1505,2.0675 -0.5,3c-3.454,-2.6025 -7.037,-5.019 -10.75,-7.25c-2.6615,-0.2495 -5.328,-0.333 -8,-0.25c0,-1 0,-2 0,-3c2.838,0.083 5.6715,-0.0005 8.5,-0.25c3.4555,-2.305 6.789,-4.7215 10,-7.25zM419.4037,433.5c22.5,0 45,0 67.5,0c0,22.5 0,45 0,67.5c-4.5,0 -9.00001,0 -13.50001,0c0.513,-9.413 1.68,-18.7465 3.5,-28c-0.2875,-1.6825 -0.621,-3.349 -1,-5c0.27,-0.624 0.6035,-1.2075 1,-1.75c4.781,-0.65 5.781,-2.9835 3,-7c0.225,-0.6425 0.5585,-1.22599 1,-1.74999c-2.2805,-2.9315 -5.19749,-4.9315 -8.74999,-6.00001c-0.034,-2.2515 -0.6175,-4.335 -1.75,-6.25c-0.9025,-0.7205 -1.9025,-0.804 -3,-0.25c-0.7395,2.4455 -1.323,4.9455 -1.75,7.5c-2.3025,1.135 -3.636,2.968 -4,5.5c-1.162,-1.709 -2.7455,-2.876 -4.75,-3.5c-0.3545,-3.0465 -0.938,-6.0465 -1.75,-9c-2.5115,-1.163 -3.928,-0.413 -4.25,2.25c0.437,1.9075 0.52,3.8245 0.25,5.75c-1.298,1.0245 -2.7145,1.8575 -4.25,2.5c-2.255,3.6875 -3.255,7.6875 -3,12c1.2445,-0.101 2.4115,0.149 3.5,0.75c-0.424,1.628 -0.75749,3.2945 -1,4.99999c0.6415,5.1505 1.64149,10.234 3,15.25001c-0.4515,3.986 -0.6185,7.986 -0.5,12c-9.8335,0 -19.6665,0 -29.5,0c0,-22.5 0,-45 0,-67.5zM313.9037,465c0.3085,-0.0555 0.5585,-0.222 0.75,-0.50001c0.3335,-4.5 0.3335,-9 0,-13.5c-0.139,-0.458 -0.389,-0.791 -0.75,-1c-0.0055,-0.7585 -0.3385,-1.34199 -1,-1.74999c-2.8285,-0.2495 -5.66201,-0.33301 -8.5,-0.25001c-7.247,-0.4155 -14.5805,-0.6655 -22,-0.75c-0.278,-0.1915 -0.4445,-0.4415 -0.5,-0.75c20.1585,-0.719 40.325,-1.136 60.5,-1.25c0.5,-0.1665 1,-0.3335 1.49999,-0.5c2,-2.3335 4.00001,-4.6665 6.00001,-7c1.6415,-0.3715 3.14149,-0.038 4.5,1c3.123,1.95 5.2895,4.61651 6.5,8c-0.0725,0.386 -0.23901,0.7195 -0.50001,1c-9.4975,-0.1235 -18.99749,-0.1235 -28.5,0c-0.893,0.3925 -1.643,0.9755 -2.25,1.75c-0.1665,2.5 -0.33351,5 -0.50001,7.5c-0.2805,1.1125 -0.78049,2.1125 -1.49999,3c-0.175,5.344 -0.5085,10.677 -1,16c-3.638,5.6125 -8.721,7.86249 -15.25,6.75c-1.3455,-2.867 -2.5955,-5.784 -3.75,-8.75c-2.04,-1.4785 -4.12351,-2.895 -6.25,-4.25c3.672,0.2265 7.3385,0.143 11,-0.25c0.4255,-1.539 0.9255,-3.039 1.5,-4.5zM398.4037,454.5c-4.6665,0 -9.33351,0 -14,0c0,-1 0,-2 0,-3c4.836,0.083 9.6695,0 14.5,-0.25c-0.272,-0.3585 -0.6055,-0.6085 -1,-0.75c0,-0.6665 0,-1.3335 0,-2c0.894,-0.1425 1.7275,0.024 2.5,0.5c0.6755,1.348 1.592,2.515 2.75,3.5c0.245,0.6465 0.32851,1.3135 0.25001,2c-1.6665,0 -3.3335,0 -5,0zM294.9037,451c1.0135,-0.081 2.0135,0.0025 3,0.25c4.4965,2.2475 8.83001,4.7475 13.00001,7.5c-3.4995,1.2495 -6.4995,3.2495 -9,6c-7.5825,5.625 -15.916,9.62501 -25,12c-0.1665,-0.1665 -0.3335,-0.3335 -0.5,-0.5c3.0995,-2.932 6.016,-6.0155 8.75,-9.25c3.3625,-5.276 6.6125,-10.6095 9.75,-16zM333.9037,452.5c5.369,1.4285 10.7025,3.01149 16,4.75c3.4825,1.7 6.5655,3.95 9.25,6.75c2.4575,3.489 2.791,7.1555 1,11c-2.705,2.5295 -5.7885,3.113 -9.25,1.75c-4.1805,-7.099 -9.2635,-13.5155 -15.25,-19.25c0.094,-1.866 -0.656,-3.28301 -2.25,-4.25001c0.278,-0.1915 0.4445,-0.4415 0.5,-0.75zM386.90371,459.5c2.943,-0.5785 5.3595,0.255 7.25,2.5c5.283,-2.791 8.3665,-1.208 9.25,4.75c-0.7835,5.8955 -3.7835,7.47899 -9,4.75c-6.126,4.263 -9.626,2.6795 -10.5,-4.75c-0.1155,-2.91 0.8845,-5.3265 3,-7.25zM458.90371,463.5c0.919,1.7405 1.752,3.5735 2.5,5.5c-0.481,1.1915 0.019,1.6915 1.5,1.5c-0.082,-1.3435 0.0015,-2.677 0.25,-4.00001c0.6765,0.5925 1.26,1.2595 1.75,2c-0.5295,1.3675 -0.86251,2.78451 -1,4.25001c1.4505,9.405 2.784,18.822 4,28.25c-3.6815,0.165 -7.3485,0 -11,-0.5c0.494,-1.475 0.9105,-2.975 1.25,-4.5c0.077,-6.6285 0.6605,-13.21149 1.75,-19.75c-0.7645,-4.2165 -1.098,-8.4665 -1,-12.75zM384.4037,478.5c1.8225,-0.41 2.989,0.2565 3.5,2c-0.8575,2.138 -2.1075,2.4715 -3.75,1c-0.245,-1.0225 -0.1615,-2.0225 0.25,-3zM384.4037,492.5c0,-0.6665 0,-1.3335 0,-2c3.6705,0.083 7.337,0 11,-0.25c1.4095,-0.0515 2.4095,-0.3015 3,-0.75c-1.1305,-1.361 -0.714,-2.361 1.25,-3c0.972,1.805 2.1385,3.4715 3.5,5c0.245,0.6465 0.32851,1.3135 0.25001,2c-6.522,0.3235 -12.85551,-0.01 -19.00001,-1zM453.9037,489c0.496,3.908 0.663,7.908 0.5,12c-0.8335,0 -1.6665,0 -2.5,0c0.156,-4.0925 0.8225,-8.0925 2,-12zM386.90371,498.5c2.509,1.1835 2.592,2.515 0.25,4c-1.7795,4.44 -0.363,7.27499 4.25,8.5c0.1665,-0.25 0.3335,-0.5 0.5,-0.75c-2.2845,-4.07 -1.7845,-7.74 1.5,-11c5.931,-2.104 9.2645,-0.0205 10,6.25c-0.087,3.035 -1.42,5.285 -4.00001,6.75c-4.4065,1.74 -8.74,1.57501 -13,-0.5c-1.58,-1.475 -2.4135,-3.305 -2.5,-5.5c0.1345,-2.985 1.1345,-5.57 3,-7.75zM289.4037,507c9.5485,1.13 12.465,6.13 8.75,15c-4.9785,4.74 -9.8115,4.575 -14.5,-0.5c-3.087,-6.825 -1.1705,-11.66 5.75,-14.5zM318.9037,507c8.0725,-0.01 11.6555,3.99001 10.75,12c-2.527,5.8 -6.777,7.55 -12.75,5.25c-5.531,-3.815 -6.4475,-8.565 -2.75,-14.25c1.4215,-1.33 3.0045,-2.33 4.75,-3zM348.9037,507c8.3555,0.44 11.772,4.77 10.25,13c-2.6785,4.545 -6.59551,6.13001 -11.75,4.75c-5.605,-3.26 -7.0215,-7.845 -4.25,-13.75c1.575,-1.905 3.4915,-3.24 5.75,-4z" fill="#fefefe"/><path d="M227.90371,70.5c1,0 1.99999,0 3,0c0,5.1665 0,10.3335 0,15.5c-1.386,0.14 -2.636,-0.19351 -3.75,-1c-0.549,-4.9615 -0.299,-9.795 0.75,-14.5z" fill="#fefffe"/><path d="M381.9037,83.5c0.6665,0 1,0.33351 1,1c-0.6665,0 -1,-0.33351 -1,-1z" fill="#d3d4d3"/><path d="M437.9037,83.5c0.6665,0 1,0.33351 1,1c-0.6665,0 -1,-0.33351 -1,-1z" fill="#d3d4d3"/><path d="M493.9037,83.5c0.6665,0 1,0.33351 1,1c0,-0.6665 -0.33351,-1 -1,-1z" fill="#cccdcc"/><path d="M465.9037,84.5c0.6665,0 1,0.3335 1,1c-0.6665,0 -1,-0.3335 -1,-1z" fill="#d7d7d7"/><path d="M344.9037,85.5c0,0.6665 -0.33351,1 -1,1c0,-0.6665 0.33351,-1 1,-1z" fill="#cacbca"/><path d="M456.9037,85.5c0,0.6665 -0.3335,1 -1,1c0,-0.6665 0.3335,-1 1,-1z" fill="#d7d8d7"/><path d="M299.90371,87.5c0.6665,0 1,0.3335 1,1c-0.6665,0 -1,-0.3335 -1,-1z" fill="#d1d2d1"/><path d="M355.9037,87.5c0.6665,0 1,0.3335 1,1c-0.6665,0 -1,-0.3335 -1,-1z" fill="#d1d2d1"/><path d="M482.9037,87.5c0,0.6665 -0.3335,1 -1,1c0,-0.6665 0.3335,-1 1,-1z" fill="#c3c4c3"/><path d="M342.9037,89c0,0.6665 -0.33351,1 -1,1c0,-0.6665 0.33351,-1 1,-1z" fill="#d9d9d9"/><path d="M329.9037,90c0.6665,0 1,0.3335 1,1c-0.6665,0 -1,-0.3335 -1,-1z" fill="#d4d5d4"/><path d="M385.9037,90c0.6665,0 1,0.3335 1,1c-0.6665,0 -1,-0.3335 -1,-1z" fill="#c6c7c6"/><path d="M441.9037,90c0.6665,0 1,0.3335 1,1c-0.6665,0 -1,-0.3335 -1,-1z" fill="#c6c7c6"/><path d="M312.90371,91.5c0,0.6665 -0.33351,1 -1,1c0,-0.6665 0.33351,-1 1,-1z" fill="#c7c8c7"/><path d="M368.9037,91.5c0,0.6665 -0.33351,1 -1,1c0,-0.6665 0.33351,-1 1,-1z" fill="#c7c8c7"/><path d="M469.9037,91.5c0.6665,0 1,0.3335 1,1c-0.6665,0 -1,-0.3335 -1,-1z" fill="#d5d6d5"/><path d="M507.9037,93.5c0.0695,-0.9185 0.403,-1.08501 1,-0.50001c-0.2285,0.399 -0.56201,0.56551 -1,0.50001z" fill="#c0c0c0" opacity="0.443"/><path d="M331.9037,93.5c0.6665,0 1,0.3335 1,1c-0.6665,0 -1,-0.3335 -1,-1z" fill="#cecfce"/><path d="M387.9037,93.5c0.6665,0 1,0.3335 1,1c-0.6665,0 -1,-0.3335 -1,-1z" fill="#c0c1c0"/><path d="M443.9037,93.5c0.6665,0 1,0.3335 1,1c-0.6665,0 -1,-0.3335 -1,-1z" fill="#c0c1c0"/><path d="M507.9037,93.5c0.1355,0.94 -0.19801,1.6065 -1,2c0.08,-0.8265 0.413,-1.493 1,-2z" fill="#c0c0c0" opacity="0.424"/><path d="M310.90371,95c0.1075,0.8395 -0.226,1.33949 -1,1.49999c-0.1075,-0.8395 0.226,-1.33949 1,-1.49999z" fill="#d9d9d9"/><path d="M366.9037,95c0.1075,0.8395 -0.226,1.33949 -1,1.49999c-0.1075,-0.8395 0.226,-1.33949 1,-1.49999z" fill="#d9d9d9"/><path d="M394.9037,95.5c0,0.6665 -0.33351,1 -1,1c0,-0.6665 0.33351,-1 1,-1z" fill="#c6c7c6"/><path d="M450.9037,95.5c0,0.6665 -0.3335,1 -1,1c0,-0.6665 0.3335,-1 1,-1z" fill="#c6c7c6"/><path d="M506.9037,95.5c0.1095,0.5875 -0.057,1.0875 -0.5,1.5c-0.649,-0.776 -0.4825,-1.276 0.5,-1.5z" fill="#c0c0c0" opacity="0.625"/><path d="M417.9037,96.5c0.6665,0 1,0.33351 1,1c-0.6665,0 -1,-0.33351 -1,-1z" fill="#d9d9d9"/><path d="M502.9037,99c-0.9825,-0.224 -1.149,-0.724 -0.5,-1.5c0.443,0.4125 0.6095,0.9125 0.5,1.5z" fill="#c0c1c0" opacity="0.524"/><path d="M502.9037,99c0.8815,0.119 1.71501,0.119 2.5,0c-0.9175,1.2815 -1.75101,1.2815 -2.5,0z" fill="#c2c2c2" opacity="0.696"/><path d="M227.90371,103c1.111,-0.161 2.028,0.1725 2.75,1c0.25,4.33 0.333,8.6635 0.25,13c-1.21,0.104 -2.3765,-0.063 -3.5,-0.5c-0.5825,-4.1565 -0.666,-8.3235 -0.25,-12.5c0.3585,-0.272 0.60851,-0.6055 0.75,-1z" fill="#fefffe"/><path d="M225.90371,146.5c7.4225,-0.995 10.506,2.17201 9.25,9.50001c-3.966,5.0595 -8.1325,5.226 -12.5,0.5c-1.6545,-4.286 -0.571,-7.61901 3.25,-10z" fill="#fefffe"/><path d="M364.9037,154c0.581,9.081 0.6645,18.2475 0.25,27.5c-0.0955,1.104 -0.3455,2.104 -0.75,3c0.3375,-10.163 0.50401,-20.33 0.50001,-30.5z" fill="#c3c4c3"/><path d="M347.4037,180c-3.0765,0.414 -6.2435,0.66399 -9.5,0.75c0.458,0.139 0.791,0.38899 1,0.75c-1.8705,0.4505 -2.8705,-0.216 -3,-2c3.825,0.3215 7.6585,0.48851 11.5,0.50001z" fill="#c0c1c0"/><path d="M138.4037,196.5c16.581,0.166 26.66401,8.3325 30.25,24.50001c0.924,14.0785 -4.993,23.995 -17.75,29.75c-13.98015,4.229 -25.23015,0.479 -33.75,-11.25c-6.0483,-10.987 -5.5483,-21.65351 1.5,-32c5.14275,-6.3605 11.72609,-10.0275 19.75,-11z" fill="#fefffe"/><path d="M303.4037,200.5c-9.415,0.4985 -18.91499,0.832 -28.5,1c9.3185,-0.9935 18.8185,-1.327 28.5,-1z" fill="#d3d4d3"/><path d="M344.9037,203.5c7.645,1.0725 15.312,1.239 23,0.5c-0.0555,0.3085 -0.22199,0.5585 -0.5,0.75c-7.6665,0.3335 -15.3335,0.3335 -23,0c0.376,-0.3355 0.543,-0.752 0.5,-1.25z" fill="#b9bab9"/><path d="M330.4037,205.5c1.603,1.042 2.2695,2.542 2,4.5c-0.8335,0 -1.6665,0 -2.5,0c-0.066,-1.535 0.1005,-3.035 0.5,-4.5z" fill="#e2e3e2"/><path d="M312.4037,218.5c-0.323,4.326 -0.4895,8.659 -0.5,13c-0.5785,-4.078 -0.6615,-8.245 -0.25,-12.49999c0.1915,-0.278 0.4415,-0.4445 0.75,-0.50001z" fill="#cbcccb"/><path d="M228.9037,244c0.8335,0 1.66651,0 2.5,0c0.163,2.192 -0.004,4.35851 -0.50001,6.5c-2.939,-0.8025 -5.772,-1.886 -8.5,-3.25c2.2405,-1.045 4.407,-2.1285 6.5,-3.25z" fill="#fefffe"/><path d="M305.9037,245.5c1.3335,0 2.6665,0 4,0c-0.0285,2.9725 -1.2785,3.6395 -3.75,2c-0.245,-0.6465 -0.3285,-1.3135 -0.25,-2z" fill="#eeefee"/><path d="M319.4037,246.5c0.498,-0.043 0.9145,0.12401 1.25,0.50001c0.4765,1.466 0.72649,2.966 0.75,4.5c-1.1635,0.1265 -2.1635,-0.20699 -3,-1c0.3975,-1.322 0.73099,-2.65551 1,-4.00001z" fill="#e8e9e8"/><path d="M365.9037,246.5c0.479,0.2265 0.896,0.5595 1.25,1c0.2835,1.334 0.53349,2.667 0.75,4c-1,0 -1.99999,0 -3,0c0.27,-1.6825 0.603,-3.349 1,-5z" fill="#e8e9e8"/><path d="M454.4037,249.5c1.5025,-0.1235 2.7525,0.3765 3.75,1.5c0.2225,2.5425 1.4725,4.2925 3.75,5.25c1.031,0.766 1.698,1.76599 2,3c-0.6755,1.8515 -1.5925,3.6015 -2.75,5.25c-1.2655,3.1405 -0.7655,5.97351 1.5,8.5c3.1845,1.23 6.3515,2.5635 9.5,4c0.4165,-0.5 0.8335,-1 1.25,-1.5c2.188,0.1455 4.3545,0.1455 6.5,0c-2.3195,2.487 -4.6525,4.987 -7,7.5c-2.431,-2.072 -5.2645,-3.322 -8.5,-3.75c-1.456,-0.6865 -2.873,-1.4365 -4.25,-2.25c-0.1665,3 -0.3335,6 -0.5,9c-3.2445,4.622 -7.2445,8.4555 -12,11.5c-0.249,1.491 -0.3325,2.99099 -0.25,4.5c-1.0135,0.081 -2.0135,-0.0025 -3,-0.25c-0.7365,-1.4835 -1.56951,-2.9 -2.5,-4.25c1.0345,-1.274 2.368,-2.19049 4,-2.75c2.0665,-2.567 4.3165,-4.984 6.75,-7.25c0.3955,-2.213 0.2285,-4.37951 -0.5,-6.5c-1.858,-2.024 -3.525,-4.19099 -5,-6.5c-0.2985,-3.8425 -0.215,-7.67601 0.25,-11.50001c-6.2775,0.072 -12.19399,1.572 -17.75,4.5c-0.25,-0.0835 -0.50001,-0.1665 -0.75,-0.25c0.3455,-0.5335 0.5955,-1.117 0.75,-1.75c6.791,-4.5205 14.041,-8.187 21.74999,-11c0.913,-1.7685 1.913,-3.435 3,-5z" fill="#fefffe"/><path d="M306.4037,251c1.3335,0 2.6665,0 4,0c0.0875,2.7445 -1.246,3.911 -4,3.5c0,-1.1665 0,-2.3335 0,-3.5z" fill="#f0f1f0"/><path d="M296.9037,274.5c-0.209,0.361 -0.542,0.611 -1,0.75c-5.4975,0.25 -10.9975,0.3335 -16.5,0.25c5.7465,-0.5045 11.58,-0.838 17.5,-1z" fill="#bdbebd"/><path d="M314.4037,274.5c4.5,0.6665 9.00001,0.6665 13.50001,0c-0.209,0.361 -0.542,0.611 -1,0.75c-3.8335,0.3335 -7.6665,0.3335 -11.5,0c-0.458,-0.139 -0.791,-0.38899 -1,-0.75z" fill="#bfc0bf"/><path d="M341.9037,286.5c-0.5905,0.7835 -1.4235,1.2005 -2.5,1.25c-2.337,0.217 -4.6705,0.467 -7,0.75c-0.7725,-0.0055 -1.439,-0.172 -2,-0.5c3.8745,-0.245 7.7075,-0.745 11.5,-1.5z" fill="#bebfbe"/><path d="M227.90371,297.5c1,0 1.99999,0 3,0c0,5.1665 0,10.3335 0,15.5c-1.386,0.14 -2.636,-0.1935 -3.75,-1c-0.549,-4.9615 -0.299,-9.795 0.75,-14.5z" fill="#fefffe"/><path d="M290.4037,322c0.498,-0.043 0.9145,0.12401 1.25,0.50001c0.1665,0.6665 0.3335,1.3335 0.5,2c0.4135,6.42 0.33,12.7535 -0.25,19c0.0835,-6.0025 0,-12.0025 -0.25,-18c-0.1895,-1.265 -0.6065,-2.4315 -1.25,-3.5z" fill="#cacbca"/><path d="M226.9037,329.5c1,0 2,0 3,0c0.8395,5.125 1.17299,10.2915 1,15.5c-1.386,0.14 -2.636,-0.19351 -3.75,-1c-0.25,-4.8305 -0.333,-9.664 -0.25,-14.5z" fill="#fefffe"/><path d="M361.9037,330c0.03,-0.2715 0.1965,-0.438 0.5,-0.50001c0.498,2.9815 0.66451,5.9815 0.50001,9c-0.3335,-2.8335 -0.6665,-5.66649 -1,-8.5z" fill="#bcbdbc"/><path d="M361.9037,330c0.0365,0.7635 -0.297,1.26349 -1,1.49999c-0.0365,-0.7635 0.297,-1.26349 1,-1.49999z" fill="#bcbdbc"/><path d="M139.4037,350c21.423,0.84 34.67299,11.6735 39.75,32.5c1.9655,19.9885 -6.1175,34.2385 -24.25,42.75c-18.0439,5.6355 -33.12725,1.2185 -45.25,-13.25c-10.37115,-16.034 -10.0378,-31.8675 1,-47.5c7.7009,-8.642 17.2842,-13.4755 28.75,-14.5zM139.4037,375c9.2875,0.1215 14.4545,4.788 15.5,14c-1.006,8.3395 -5.6725,13.006 -14,14c-8.32735,-0.994 -12.994,-5.66049 -14,-14c0.73205,-7.831 4.8987,-12.498 12.5,-14z" fill="#fefffe"/><path d="M288.90371,355c-0.02,1.6905 0.1465,3.357 0.5,5c4.109,0.255 8.109,-0.245 12,-1.5c-0.0555,0.3085 -0.22199,0.5585 -0.5,0.75c-3.8815,1.393 -7.8815,1.9765 -12,1.75c-0.5195,-2.079 -0.5195,-4.079 0,-6z" fill="#c6c7c6"/><path d="M226.9037,362c1,0 2,0 3,0c0.821,4.2875 1.1545,8.6205 1,13c-1.386,0.14 -2.636,-0.19351 -3.75,-1c-0.25,-3.9965 -0.333,-7.9965 -0.25,-12z" fill="#fefffe"/><path d="M306.4037,368.5c2.537,0.4785 3.704,2.062 3.5,4.75c-0.1035,2.132 -1.02,3.7155 -2.75,4.75c-1.144,0.0555 -1.894,-0.4445 -2.25,-1.5c-0.633,-2.5025 -0.633,-5.0025 0,-7.5c0.6455,0.1185 1.1455,-0.04801 1.5,-0.50001z" fill="#f1f2f1"/><path d="M339.9037,378c0.4755,0.7095 0.642,1.5425 0.5,2.5c-3.8335,0 -7.6665,0 -11.5,0c-0.1185,-0.6455 0.04801,-1.1455 0.50001,-1.5c3.2935,0.9805 6.79349,1.314 10.5,1c0,-0.6665 0,-1.3335 0,-2z" fill="#cbcccb"/><path d="M227.90371,393.5c1,0 1.99999,0 3,0c0,4.5 0,9 0,13.5c-1.386,0.14 -2.636,-0.1935 -3.75,-1c-0.5425,-4.2985 -0.2925,-8.4655 0.75,-12.5z" fill="#fefffe"/><path d="M298.4037,401c2.192,-0.163 4.3585,0.00399 6.5,0.5c1.611,2.389 1.111,4.222 -1.5,5.5c-1.694,-1.1805 -3.527,-2.09699 -5.5,-2.75c-0.4285,-0.3445 -0.7615,-0.761 -1,-1.25c0.512,-0.676 1.012,-1.3425 1.5,-2z" fill="#f0f1f0"/><path d="M384.4037,412.5c0,4 0,8 0,12c0.6665,0 1.3335,0 2,0c-0.7095,0.4755 -1.5425,0.642 -2.5,0.5c-0.163,-4.2585 0.0035,-8.425 0.5,-12.5z" fill="#b3b4b3"/><path d="M227.90371,425.5c1,0 1.99999,0 3,0c0,5.3335 0,10.6665 0,16c-1.21,0.104 -2.3765,-0.063 -3.5,-0.5c-0.1665,-2.5 -0.3335,-5 -0.5,-7.5c0.0255,-2.7895 0.35901,-5.456 1,-8z" fill="#fefffe"/><path d="M281.9037,446.5c0.0555,0.3085 0.22199,0.5585 0.5,0.75c7.4195,0.0845 14.753,0.3345 22,0.75c-7.502,0.0835 -15.002,0 -22.5,-0.25c-0.637,-0.4885 -0.637,-0.9055 0,-1.25z" fill="#b4b5b4"/><path d="M313.9037,450c0.361,0.209 0.611,0.542 0.75,1c0.3335,4.5 0.3335,9 0,13.5c-0.1915,0.278 -0.44151,0.4445 -0.75,0.50001c0,-5 0,-10 0,-15.00001z" fill="#d7d8d7"/><path d="M397.90371,450.5c0.3945,0.1415 0.728,0.3915 1,0.75c-4.8305,0.25 -9.664,0.333 -14.5,0.25c0,1 0,2 0,3c4.6665,0 9.33351,0 14,0c-4.743,0.497 -9.576,0.66349 -14.5,0.5c0,-1.3335 0,-2.6665 0,-4c4.677,0.055 9.34401,-0.1115 14,-0.5z" fill="#d4d5d4"/><path d="M226.9037,457.5c1,0 2,0 3,0c-0.313,5.0475 0.02049,9.964 1,14.75c-1.358,1.0755 -2.608,0.99199 -3.75,-0.25001c-0.25,-4.8305 -0.333,-9.66399 -0.25,-14.49999z" fill="#fefffe"/><path d="M387.9037,462.5c3.9605,0.0675 5.3775,2.0675 4.25,6c-1.8335,4 -3.6665,4 -5.5,0c-0.556,-2.2405 -0.1395,-4.2405 1.25,-6z" fill="#f6f7f6"/><path d="M396.9037,463c2.4925,0.159 3.8255,1.4925 4,4c-0.675,3.746 -2.425,4.4125 -5.25,2c-0.6135,-2.281 -0.1965,-4.281 1.25,-6z" fill="#f1f2f1"/><path d="M398.4037,489.5c-0.5905,0.4485 -1.59051,0.6985 -3,0.75c-3.663,0.25 -7.3295,0.333 -11,0.25c0,0.6665 0,1.3335 0,2c-0.4755,-0.7095 -0.642,-1.5425 -0.5,-2.5c4.844,0.06 9.677,-0.1065 14.5,-0.5z" fill="#bbbcbb"/><path d="M227.90371,490c1,0 1.99999,0 3,0c0,4.6665 0,9.33351 0,14c-1.21,0.105 -2.3765,-0.065 -3.5,-0.50001c-0.795,-4.621 -0.62849,-9.121 0.50001,-13.5z" fill="#fefffe"/><path d="M395.9037,501c4.26,0.85 5.67651,3.35 4.25001,7.5c-2.4005,2.125 -4.567,1.96 -6.5,-0.5c-0.8445,-2.925 -0.0945,-5.255 2.25,-7z" fill="#f5f6f5"/><path d="M89.4037,559.5c0,-2.5 0,-5 0,-7.5c2.57806,-22.055 14.24475,-37.14 35,-45.25c26.01,-6.722 46.4265,1.03 61.25,23.25c9.761,19.255 8.76099,37.92 -3,56c-15.5335,18.955 -35.117,25.04 -58.75,18.25c-20.2878,-8.2 -31.7878,-23.115 -34.5,-44.75zM138.90371,519c18.678,0.435 31.0945,9.435 37.25,27c3.4825,16.725 -1.60051,30.14 -15.25001,40.25c-17.316,9.435 -33.066,7.35001 -47.25,-6.25c-11.7423,-15.305 -12.2423,-30.97001 -1.5,-47c7.13315,-8.19 16.04981,-12.855 26.75,-14z" fill="#fefffe"/><path d="M227.90371,522c1,0 1.99999,0 3,0c0,4.665 0,9.335 0,14c-1.21,0.105 -2.3765,-0.065 -3.5,-0.5c-0.795,-4.62 -0.62849,-9.12001 0.50001,-13.50001z" fill="#fefffe"/><path d="M139.9037,538.5c14.1955,1.73 19.779,9.565 16.75,23.5c-4.5095,8.71 -11.5925,11.96 -21.25,9.75c-9.21565,-4.18 -12.799,-11.26499 -10.75,-21.25c2.6944,-7.12 7.77775,-11.12001 15.25,-12z" fill="#fefffe"/><path d="M227.90371,554.5c1.111,-0.16 2.028,0.17 2.75,1c0.25,4.165 0.333,8.32999 0.25,12.49999c-1.21,0.105 -2.3765,-0.065 -3.5,-0.5c-0.5825,-3.99 -0.666,-7.99 -0.25,-12c0.3585,-0.27 0.60851,-0.605 0.75,-1z" fill="#fefffe"/><path d="M227.90371,586.5c1.111,-0.16 2.028,0.17 2.75,1c0.25,4.995 0.333,9.995 0.25,15c-1.21,0.105 -2.3765,-0.065 -3.5,-0.5c-0.5825,-4.825 -0.666,-9.66 -0.25,-14.5c0.3585,-0.27 0.60851,-0.605 0.75,-1z" fill="#fefffe"/><path d="M226.9037,620c1,0 2,0 3,0c0.84,4.62 1.17299,9.29 1,14c-1.21,0.105 -2.3765,-0.065 -3.5,-0.5c-0.499,-4.49 -0.666,-8.99001 -0.5,-13.50001z" fill="#fefffe"/></g></g></g></svg>